<svg width="56" height="56" viewBox="0 0 56 56" fill="none" xmlns="http://www.w3.org/2000/svg">
<path d="M32.9175 3.675C31.472 -1.225 24.528 -1.225 23.0825 3.675L22.7325 4.865C22.5165 5.59858 22.1391 6.27452 21.6279 6.84324C21.1167 7.41197 20.4846 7.85906 19.7781 8.15172C19.0716 8.44439 18.3086 8.57521 17.545 8.5346C16.7813 8.49398 16.0365 8.28296 15.365 7.917L14.28 7.322C9.7895 4.879 4.879 9.7895 7.3255 14.2765L7.917 15.365C9.478 18.235 7.9975 21.8085 4.865 22.7325L3.675 23.0825C-1.225 24.528 -1.225 31.472 3.675 32.9175L4.865 33.2675C5.59858 33.4835 6.27452 33.8609 6.84324 34.3721C7.41197 34.8833 7.85906 35.5154 8.15172 36.2219C8.44439 36.9284 8.57521 37.6914 8.5346 38.455C8.49398 39.2187 8.28296 39.9635 7.917 40.635L7.322 41.72C4.879 46.2105 9.7895 51.121 14.2765 48.6745L15.365 48.083C16.0365 47.717 16.7813 47.506 17.545 47.4654C18.3086 47.4248 19.0716 47.5556 19.7781 47.8483C20.4846 48.1409 21.1167 48.588 21.6279 49.1568C22.1391 49.7255 22.5165 50.4014 22.7325 51.135L23.0825 52.325C24.528 57.225 31.472 57.225 32.9175 52.325L33.2675 51.135C33.4835 50.4014 33.8609 49.7255 34.3721 49.1568C34.8833 48.588 35.5154 48.1409 36.2219 47.8483C36.9284 47.5556 37.6914 47.4248 38.455 47.4654C39.2187 47.506 39.9635 47.717 40.635 48.083L41.72 48.678C46.2105 51.121 51.121 46.2105 48.6745 41.7235L48.083 40.635C47.717 39.9635 47.506 39.2187 47.4654 38.455C47.4248 37.6914 47.5556 36.9284 47.8483 36.2219C48.1409 35.5154 48.588 34.8833 49.1568 34.3721C49.7255 33.8609 50.4014 33.4835 51.135 33.2675L52.325 32.9175C57.225 31.472 57.225 24.528 52.325 23.0825L51.135 22.7325C50.4014 22.5165 49.7255 22.1391 49.1568 21.6279C48.588 21.1167 48.1409 20.4846 47.8483 19.7781C47.5556 19.0716 47.4248 18.3086 47.4654 17.545C47.506 16.7813 47.717 16.0365 48.083 15.365L48.678 14.28C51.121 9.7895 46.2105 4.879 41.7235 7.3255L40.635 7.917C39.9635 8.28296 39.2187 8.49398 38.455 8.5346C37.6914 8.57521 36.9284 8.44439 36.2219 8.15172C35.5154 7.85906 34.8833 7.41197 34.3721 6.84324C33.8609 6.27452 33.4835 5.59858 33.2675 4.865L32.9175 3.675ZM28 38.255C25.2802 38.255 22.6718 37.1746 20.7486 35.2514C18.8254 33.3282 17.745 30.7198 17.745 28C17.745 25.2802 18.8254 22.6718 20.7486 20.7486C22.6718 18.8254 25.2802 17.745 28 17.745C30.7189 17.745 33.3264 18.8251 35.2489 20.7476C37.1714 22.6701 38.2515 25.2776 38.2515 27.9965C38.2515 30.7154 37.1714 33.3229 35.2489 35.2454C33.3264 37.1679 30.7189 38.248 28 38.248V38.255Z" fill="#0D0D0D"/>
</svg>
