<svg width="57" height="56" viewBox="0 0 57 56" fill="none" xmlns="http://www.w3.org/2000/svg">
<path d="M56.6584 28C56.6584 43.464 44.1224 56 28.6584 56C13.1945 56 0.658447 43.464 0.658447 28C0.658447 12.536 13.1945 0 28.6584 0C44.1224 0 56.6584 12.536 56.6584 28Z" fill="#0D0D0D"/>
<g clip-path="url(#clip0_450_194)">
<path d="M22.7398 26.1195H21.8816C20.7105 26.0761 19.5431 26.2799 18.452 26.7182C17.3609 27.1565 16.3693 27.82 15.5387 28.6675L15.302 28.9506V37.3226H19.3267V32.5704L19.8693 31.9435L20.1159 31.6503C21.4002 30.2979 22.9991 29.3028 24.7621 28.7585C23.8794 28.0701 23.1832 27.1616 22.7398 26.1195Z" fill="#FAFAFA"/>
<path d="M41.8178 28.637C40.9872 27.7895 39.9956 27.126 38.9045 26.6877C37.8134 26.2494 36.646 26.0456 35.4749 26.089C35.1157 26.09 34.7568 26.1103 34.3997 26.1496C33.948 27.1273 33.2708 27.9775 32.4268 28.6269C34.3089 29.1606 36.0139 30.2091 37.359 31.6602L37.6056 31.9433L38.1383 32.5702V37.3325H42.0249V28.9201L41.8178 28.637Z" fill="#FAFAFA"/>
<path d="M21.852 24.1477H22.1578C22.0158 22.8972 22.2298 21.6313 22.7742 20.5027C23.3186 19.3742 24.17 18.4313 25.2257 17.7878C24.843 17.1886 24.3151 16.7015 23.6936 16.3742C23.072 16.0469 22.3782 15.8907 21.6801 15.9209C20.982 15.9511 20.3035 16.1665 19.7111 16.5462C19.1186 16.9259 18.6325 17.4568 18.3004 18.0869C17.9682 18.717 17.8015 19.4248 17.8163 20.1408C17.8312 20.8568 18.0273 21.5566 18.3853 22.1717C18.7433 22.7867 19.2511 23.2959 19.8588 23.6494C20.4665 24.0028 21.1533 24.1885 21.852 24.1881V24.1477Z" fill="#FAFAFA"/>
<path d="M35.0014 23.3894C35.0134 23.6218 35.0134 23.8546 35.0014 24.087C35.1907 24.1178 35.3819 24.1347 35.5736 24.1376H35.761C36.4567 24.0996 37.1309 23.8776 37.718 23.4932C38.3051 23.1088 38.7851 22.5752 39.1112 21.9442C39.4374 21.3132 39.5986 20.6065 39.5792 19.8927C39.5598 19.1789 39.3603 18.4824 39.0004 17.8711C38.6404 17.2597 38.1321 16.7543 37.525 16.4041C36.9179 16.0539 36.2327 15.8708 35.536 15.8726C34.8394 15.8744 34.1551 16.061 33.5497 16.4144C32.9443 16.7677 32.4385 17.2757 32.0815 17.8889C32.9744 18.4864 33.7085 19.3017 34.2181 20.2618C34.7278 21.2218 34.9969 22.2964 35.0014 23.3894Z" fill="#FAFAFA"/>
<path d="M28.5303 27.9192C30.9655 27.9192 32.9397 25.8957 32.9397 23.3995C32.9397 20.9034 30.9655 18.8799 28.5303 18.8799C26.095 18.8799 24.1208 20.9034 24.1208 23.3995C24.1208 25.8957 26.095 27.9192 28.5303 27.9192Z" fill="#FAFAFA"/>
<path d="M28.7669 30.3257C27.4786 30.2724 26.1931 30.4868 24.9878 30.9559C23.7825 31.4251 22.6822 32.1393 21.7532 33.0557L21.5066 33.3388V39.7392C21.5104 39.9476 21.5543 40.1533 21.6357 40.3444C21.7171 40.5355 21.8345 40.7083 21.981 40.8529C22.1276 40.9975 22.3005 41.111 22.4899 41.1871C22.6793 41.2632 22.8815 41.3003 23.0849 41.2963H34.4192C34.6226 41.3003 34.8248 41.2632 35.0142 41.1871C35.2036 41.111 35.3765 40.9975 35.5231 40.8529C35.6697 40.7083 35.787 40.5355 35.8684 40.3444C35.9498 40.1533 35.9937 39.9476 35.9975 39.7392V33.359L35.7608 33.0557C34.8378 32.1365 33.7414 31.4203 32.5387 30.9508C31.3361 30.4814 30.0526 30.2687 28.7669 30.3257Z" fill="#FAFAFA"/>
</g>
<defs>
<clipPath id="clip0_450_194">
<rect width="35.5122" height="36.4" fill="white" transform="translate(10.9023 9.80005)"/>
</clipPath>
</defs>
</svg>
