<svg width="47" height="21" viewBox="0 0 47 21" fill="none" xmlns="http://www.w3.org/2000/svg">
<path d="M44.423 20.497C44.9737 20.5395 45.4545 20.1276 45.497 19.577L46.1896 10.6036C46.2321 10.053 45.8202 9.57216 45.2696 9.52966C44.7189 9.48715 44.2381 9.89909 44.1956 10.4497L43.5799 18.426L35.6036 17.8104C35.053 17.7679 34.5722 18.1798 34.5297 18.7304C34.4872 19.2811 34.8991 19.7619 35.4497 19.8044L44.423 20.497ZM0.422387 2.95349C13.6468 1.72912 24.4745 6.02225 32.0176 10.6441C35.7884 12.9546 38.7289 15.3418 40.7241 17.1487C41.7212 18.0517 42.4808 18.8086 42.9886 19.3368C43.2425 19.6008 43.4333 19.8076 43.5593 19.9467C43.6222 20.0162 43.669 20.0689 43.6993 20.1033C43.7144 20.1205 43.7255 20.1332 43.7324 20.1411C43.7358 20.1451 43.7382 20.1479 43.7396 20.1494C43.7403 20.1502 43.7407 20.1507 43.7409 20.1509C43.7409 20.151 43.7409 20.1509 43.7409 20.151C43.7408 20.1508 43.7406 20.1506 44.5 19.5C45.2594 18.8494 45.2591 18.849 45.2587 18.8486C45.2585 18.8483 45.258 18.8478 45.2576 18.8472C45.2567 18.8462 45.2555 18.8449 45.2541 18.8433C45.2513 18.84 45.2475 18.8355 45.2426 18.8299C45.2327 18.8186 45.2187 18.8025 45.2006 18.7819C45.1642 18.7406 45.1113 18.681 45.0419 18.6044C44.9031 18.4511 44.6987 18.2297 44.4304 17.9506C43.8937 17.3925 43.101 16.6031 42.0666 15.6663C39.9986 13.7934 36.9592 11.3264 33.0625 8.93879C25.2708 4.16459 14.0136 -0.313401 0.238006 0.962006L0.422387 2.95349Z" fill="black"/>
</svg>
