<svg width="57" height="56" viewBox="0 0 57 56" fill="none" xmlns="http://www.w3.org/2000/svg">
<path d="M56.6584 28C56.6584 43.464 44.1224 56 28.6584 56C13.1945 56 0.658447 43.464 0.658447 28C0.658447 12.536 13.1945 0 28.6584 0C44.1224 0 56.6584 12.536 56.6584 28Z" fill="#0D0D0D"/>
<path d="M24.5063 42H26.0042V39.1H24.5228C24.0614 39.0913 20.0126 38.8492 20.0126 33.3C20.0126 30.4102 19.0165 28.5933 17.7627 27.5C19.0165 26.4067 20.0126 24.5899 20.0126 21.7C20.0126 16.1509 24.0614 15.9087 24.5063 15.9H26.0042V13H24.5033C21.9134 13.0058 17.0168 14.8328 17.0168 21.7C17.0168 25.76 14.5033 26.0355 14 26.05L14.021 28.95C14.1438 28.95 17.0168 28.9993 17.0168 33.3C17.0168 40.1672 21.9134 41.9942 24.5063 42ZM43.979 26.05C43.8562 26.05 40.9832 26.0007 40.9832 21.7C40.9832 14.8328 36.0866 13.0058 33.4937 13H31.9958V15.9H33.4772C33.9386 15.9087 37.9874 16.1509 37.9874 21.7C37.9874 24.5899 38.9835 26.4067 40.2373 27.5C38.9835 28.5933 37.9874 30.4102 37.9874 33.3C37.9874 38.8492 33.9386 39.0913 33.4937 39.1H31.9958V42H33.4967C36.0866 41.9942 40.9832 40.1672 40.9832 33.3C40.9832 29.24 43.4967 28.9645 44 28.95L43.979 26.05Z" fill="white"/>
</svg>
