<svg width="56" height="56" viewBox="0 0 56 56" fill="none" xmlns="http://www.w3.org/2000/svg">
<path d="M32.6667 44.3333C41.4658 44.3333 45.8664 44.3333 48.5987 41.5987C51.3334 38.8663 51.3334 34.4657 51.3334 25.6667C51.3334 16.8677 51.3334 12.467 48.5987 9.73467C45.8664 7 41.4658 7 32.6667 7H23.3334C14.5344 7 10.1337 7 7.40141 9.73467C4.66675 12.467 4.66675 16.8677 4.66675 25.6667C4.66675 34.4657 4.66675 38.8663 7.40141 41.5987C8.92508 43.1247 10.9667 43.799 14.0001 44.0953" stroke="black" stroke-width="5" stroke-linecap="round" stroke-linejoin="round"/>
<path d="M28.0001 25.6667V25.6901M18.6667 25.6667V25.6901M37.3334 25.6667V25.6901M32.6667 44.3334C29.7827 44.3334 26.6047 45.5001 23.7044 47.0051C19.0424 49.4247 16.7114 50.6357 15.5634 49.8634C14.4154 49.0934 14.6324 46.7017 15.0687 41.9207L15.1667 40.8334" stroke="black" stroke-width="5" stroke-linecap="round"/>
</svg>
