<svg width="56" height="56" viewBox="0 0 56 56" fill="none" xmlns="http://www.w3.org/2000/svg">
<path fill-rule="evenodd" clip-rule="evenodd" d="M4.10052 4.10052C0 8.201 0 14.8007 0 28C0 41.1992 0 47.7991 4.10052 51.8994C8.201 56 14.8007 56 28 56C41.1992 56 47.7991 56 51.8994 51.8994C56 47.7991 56 41.1992 56 28C56 14.8007 56 8.201 51.8994 4.10052C47.7991 0 41.1992 0 28 0C14.8007 0 8.201 0 4.10052 4.10052ZM32.1667 12.4485C33.287 12.7487 33.9517 13.9002 33.6515 15.0205L26.4046 42.0664C26.1044 43.1866 24.9528 43.8516 23.8325 43.5515C22.7122 43.251 22.0475 42.0997 22.3477 40.9794L29.5946 13.9335C29.8948 12.8132 31.0464 12.1484 32.1667 12.4485ZM36.3152 18.1151C37.1353 17.295 38.4647 17.295 39.2848 18.1151L39.8684 18.6984C41.6472 20.4772 43.1306 21.9606 44.1498 23.2966C45.2259 24.7066 45.9805 26.1965 45.9805 28C45.9805 29.8035 45.2259 31.2934 44.1498 32.7034C43.1306 34.0393 41.6472 35.5228 39.8684 37.3016L39.2848 37.8848C38.4647 38.705 37.1353 38.705 36.3152 37.8848C35.495 37.0647 35.495 35.7353 36.3152 34.9152L36.7954 34.4347C38.7041 32.5259 39.9832 31.2407 40.8108 30.1557C41.6016 29.1194 41.7805 28.516 41.7805 28C41.7805 27.484 41.6016 26.8806 40.8108 25.8443C39.9832 24.7593 38.7041 23.4741 36.7954 21.5653L36.3152 21.0849C35.495 20.2648 35.495 18.9352 36.3152 18.1151ZM16.7156 18.1151C17.5357 17.295 18.8653 17.295 19.6855 18.1151C20.5055 18.9352 20.5055 20.2648 19.6855 21.0849L19.205 21.5653C17.2964 23.4741 16.0175 24.7593 15.1897 25.8443C14.3989 26.8806 14.2201 27.484 14.2201 28C14.2201 28.516 14.3989 29.1194 15.1897 30.1557C16.0175 31.2407 17.2964 32.5259 19.205 34.4347L19.6855 34.9152C20.5055 35.7353 20.5055 37.0647 19.6855 37.8848C18.8653 38.705 17.5357 38.705 16.7156 37.8848L16.1322 37.3016C14.3533 35.5228 12.8699 34.0393 11.8506 32.7034C10.7747 31.2934 10.0201 29.8035 10.0201 28C10.0201 26.1965 10.7747 24.7066 11.8506 23.2966C12.8699 21.9606 14.3533 20.4773 16.1322 18.6984L16.7156 18.1151Z" fill="#0D0D0D"/>
</svg>
